# This file uses centimeters as units for non-parametric coordinates.

mtllib FenceShatter.mtl
g default
v -1.817342 0.699033 0.500000
v -0.206178 0.699033 0.500000
v -1.817342 13.155693 0.500000
v -0.206178 13.155693 0.500000
v -1.817342 13.155693 0.016267
v -0.206178 13.155693 0.016267
v -1.817342 0.699033 0.016267
v -0.206178 0.699033 0.016267
v -0.999187 14.055427 0.500000
v -0.999187 14.055427 0.016267
v -0.999187 0.699033 0.016267
v -0.999187 0.699033 0.500000
vt 0.463238 0.833067
vt 0.463236 0.861443
vt 0.031207 0.833038
vt 0.000000 0.861412
vt 0.660214 0.034607
vt 0.705109 0.000002
vt 0.676458 0.040180
vt 0.705869 0.014995
vt 0.704220 0.478958
vt 0.675288 0.474528
vt 0.660288 0.483565
vt 0.704481 0.494133
vt 0.747075 0.483097
vt 0.732336 0.474488
vt 0.750957 0.035400
vt 0.734208 0.041751
vt 0.031203 0.888917
vt 0.463234 0.888946
vn 0.000000 0.000000 1.000000
vn 0.000000 0.000000 1.000000
vn 0.000000 0.000000 1.000000
vn 0.000000 0.000000 1.000000
vn -0.739852 0.672770 0.000000
vn 0.000000 1.000000 0.000000
vn -0.739852 0.672770 0.000000
vn 0.000000 1.000000 0.000000
vn 0.000000 0.000000 -1.000000
vn 0.000000 0.000000 -1.000000
vn 0.000000 0.000000 -1.000000
vn 0.000000 0.000000 -1.000000
vn 0.000000 -1.000000 0.000000
vn 0.000000 -1.000000 0.000000
vn 0.000000 -1.000000 0.000000
vn 0.000000 -1.000000 0.000000
vn 1.000000 0.000000 0.000000
vn 1.000000 0.000000 0.000000
vn 1.000000 0.000000 0.000000
vn 1.000000 0.000000 0.000000
vn -1.000000 0.000000 0.000000
vn -1.000000 0.000000 0.000000
vn -1.000000 0.000000 0.000000
vn -1.000000 0.000000 0.000000
vn 0.000000 1.000000 0.000000
vn 0.750199 0.661212 0.000000
vn 0.000000 1.000000 0.000000
vn 0.750199 0.661212 0.000000
vn 0.000000 0.000000 -1.000000
vn 0.000000 0.000000 -1.000000
vn 0.000000 0.000000 -1.000000
vn 0.000000 0.000000 -1.000000
vn 0.000000 -1.000000 0.000000
vn 0.000000 -1.000000 0.000000
vn 0.000000 -1.000000 0.000000
vn 0.000000 -1.000000 0.000000
vn 0.000000 0.000000 1.000000
vn 0.000000 0.000000 1.000000
vn 0.000000 0.000000 1.000000
vn 0.000000 0.000000 1.000000
s 1
g shard1 surfaceShatter
usemtl initialShadingGroup
f 1/1/1 12/2/2 3/3/3
f 3/3/3 12/2/2 9/4/4
s 2
f 3/5/5 9/6/6 5/7/7
f 5/7/7 9/6/6 10/8/8
s 3
f 10/8/9 11/9/10 5/7/11
f 5/7/11 11/9/10 7/10/12
s 4
f 7/10/13 11/9/14 1/11/15
f 1/11/15 11/9/14 12/12/16
s 5
f 2/13/17 8/14/18 4/15/19
f 4/15/19 8/14/18 6/16/20
s 6
f 7/10/21 1/11/22 5/7/23
f 5/7/23 1/11/22 3/5/24
s 7
f 9/6/25 4/15/26 10/8/27
f 10/8/27 4/15/26 6/16/28
s 8
f 10/8/29 6/16/30 11/9/31
f 11/9/31 6/16/30 8/14/32
s 9
f 12/12/33 11/9/34 2/13/35
f 2/13/35 11/9/34 8/14/36
s 10
f 9/4/37 12/2/38 4/17/39
f 4/17/39 12/2/38 2/18/40
g default
v 0.688011 0.699033 0.500000
v 2.299175 0.699033 0.500000
v 0.688011 13.155693 0.500000
v 2.299175 13.155693 0.500000
v 0.688011 13.155693 0.016267
v 2.299175 13.155693 0.016267
v 0.688011 0.699033 0.016267
v 2.299175 0.699033 0.016267
v 1.506166 14.055427 0.500000
v 1.506166 14.055427 0.016267
v 1.506166 0.699033 0.016267
v 1.506166 0.699033 0.500000
vt 0.897589 0.888944
vt 0.897587 0.917320
vt 0.465558 0.888915
vt 0.434351 0.917289
vt 0.000000 0.295808
vt 0.044901 0.261209
vt 0.016244 0.301384
vt 0.045659 0.276203
vt 0.043942 0.740165
vt 0.015011 0.735731
vt 0.000010 0.744766
vt 0.044201 0.755340
vt 0.086797 0.744310
vt 0.072059 0.735699
vt 0.090743 0.296614
vt 0.073993 0.302962
vt 0.465555 0.944795
vt 0.897585 0.944823
vn 0.000000 0.000000 1.000000
vn 0.000000 0.000000 1.000000
vn 0.000000 0.000000 1.000000
vn 0.000000 0.000000 1.000000
vn -0.739852 0.672770 0.000000
vn 0.000000 1.000000 0.000000
vn -0.739852 0.672770 0.000000
vn 0.000000 1.000000 0.000000
vn 0.000000 0.000000 -1.000000
vn 0.000000 0.000000 -1.000000
vn 0.000000 0.000000 -1.000000
vn 0.000000 0.000000 -1.000000
vn 0.000000 -1.000000 0.000000
vn 0.000000 -1.000000 0.000000
vn 0.000000 -1.000000 0.000000
vn 0.000000 -1.000000 0.000000
vn 1.000000 0.000000 0.000000
vn 1.000000 0.000000 0.000000
vn 1.000000 0.000000 0.000000
vn 1.000000 0.000000 0.000000
vn -1.000000 0.000000 0.000000
vn -1.000000 0.000000 0.000000
vn -1.000000 0.000000 0.000000
vn -1.000000 0.000000 0.000000
vn 0.000000 1.000000 0.000000
vn 0.750199 0.661212 0.000000
vn 0.000000 1.000000 0.000000
vn 0.750199 0.661212 0.000000
vn 0.000000 0.000000 -1.000000
vn 0.000000 0.000000 -1.000000
vn 0.000000 0.000000 -1.000000
vn 0.000000 0.000000 -1.000000
vn 0.000000 -1.000000 0.000000
vn 0.000000 -1.000000 0.000000
vn 0.000000 -1.000000 0.000000
vn 0.000000 -1.000000 0.000000
vn 0.000000 0.000000 1.000000
vn 0.000000 0.000000 1.000000
vn 0.000000 0.000000 1.000000
vn 0.000000 0.000000 1.000000
s 1
g surfaceShatter shard2
usemtl initialShadingGroup
f 13/19/41 24/20/42 15/21/43
f 15/21/43 24/20/42 21/22/44
s 2
f 15/23/45 21/24/46 17/25/47
f 17/25/47 21/24/46 22/26/48
s 3
f 22/26/49 23/27/50 17/25/51
f 17/25/51 23/27/50 19/28/52
s 4
f 19/28/53 23/27/54 13/29/55
f 13/29/55 23/27/54 24/30/56
s 5
f 14/31/57 20/32/58 16/33/59
f 16/33/59 20/32/58 18/34/60
s 6
f 19/28/61 13/29/62 17/25/63
f 17/25/63 13/29/62 15/23/64
s 7
f 21/24/65 16/33/66 22/26/67
f 22/26/67 16/33/66 18/34/68
s 8
f 22/26/69 18/34/70 23/27/71
f 23/27/71 18/34/70 20/32/72
s 9
f 24/30/73 23/27/74 14/31/75
f 14/31/75 23/27/74 20/32/76
s 10
f 21/22/77 24/20/78 16/35/79
f 16/35/79 24/20/78 14/36/80
g default
v 3.364784 0.699033 0.500000
v 4.975948 0.699033 0.500000
v 3.364784 13.155693 0.500000
v 4.975948 13.155693 0.500000
v 3.364784 13.155693 0.016267
v 4.975948 13.155693 0.016267
v 3.364784 0.699033 0.016267
v 4.975948 0.699033 0.016267
v 4.182939 14.055427 0.500000
v 4.182939 14.055427 0.016267
v 4.182939 0.699033 0.016267
v 4.182939 0.699033 0.500000
vt 0.784651 0.777113
vt 0.784656 0.805489
vt 0.352621 0.777180
vt 0.321420 0.805560
vt 0.533357 0.203410
vt 0.567967 0.248300
vt 0.527782 0.219655
vt 0.552975 0.249066
vt 0.089014 0.247424
vt 0.093439 0.218492
vt 0.084404 0.203490
vt 0.073840 0.247685
vt 0.084867 0.290277
vt 0.093479 0.275540
vt 0.532574 0.294155
vt 0.526225 0.277404
vt 0.352629 0.833059
vt 0.784660 0.832992
vn 0.000000 0.000000 1.000000
vn 0.000000 0.000000 1.000000
vn 0.000000 0.000000 1.000000
vn 0.000000 0.000000 1.000000
vn -0.739852 0.672770 0.000000
vn 0.000000 1.000000 0.000000
vn -0.739852 0.672770 0.000000
vn 0.000000 1.000000 0.000000
vn 0.000000 0.000000 -1.000000
vn 0.000000 0.000000 -1.000000
vn 0.000000 0.000000 -1.000000
vn 0.000000 0.000000 -1.000000
vn 0.000000 -1.000000 0.000000
vn 0.000000 -1.000000 0.000000
vn 0.000000 -1.000000 0.000000
vn 0.000000 -1.000000 0.000000
vn 1.000000 0.000000 0.000000
vn 1.000000 0.000000 0.000000
vn 1.000000 0.000000 0.000000
vn 1.000000 0.000000 0.000000
vn -1.000000 0.000000 0.000000
vn -1.000000 0.000000 0.000000
vn -1.000000 0.000000 0.000000
vn -1.000000 0.000000 0.000000
vn 0.000000 1.000000 0.000000
vn 0.750199 0.661212 0.000000
vn 0.000000 1.000000 0.000000
vn 0.750199 0.661212 0.000000
vn 0.000000 0.000000 -1.000000
vn 0.000000 0.000000 -1.000000
vn 0.000000 0.000000 -1.000000
vn 0.000000 0.000000 -1.000000
vn 0.000000 -1.000000 0.000000
vn 0.000000 -1.000000 0.000000
vn 0.000000 -1.000000 0.000000
vn 0.000000 -1.000000 0.000000
vn 0.000000 0.000000 1.000000
vn 0.000000 0.000000 1.000000
vn 0.000000 0.000000 1.000000
vn 0.000000 0.000000 1.000000
s 1
g surfaceShatter shard3
usemtl initialShadingGroup
f 25/37/81 36/38/82 27/39/83
f 27/39/83 36/38/82 33/40/84
s 2
f 27/41/85 33/42/86 29/43/87
f 29/43/87 33/42/86 34/44/88
s 3
f 34/44/89 35/45/90 29/43/91
f 29/43/91 35/45/90 31/46/92
s 4
f 31/46/93 35/45/94 25/47/95
f 25/47/95 35/45/94 36/48/96
s 5
f 26/49/97 32/50/98 28/51/99
f 28/51/99 32/50/98 30/52/100
s 6
f 31/46/101 25/47/102 29/43/103
f 29/43/103 25/47/102 27/41/104
s 7
f 33/42/105 28/51/106 34/44/107
f 34/44/107 28/51/106 30/52/108
s 8
f 34/44/109 30/52/110 35/45/111
f 35/45/111 30/52/110 32/50/112
s 9
f 36/48/113 35/45/114 26/49/115
f 26/49/115 35/45/114 32/50/116
s 10
f 33/40/117 36/38/118 28/53/119
f 28/53/119 36/38/118 26/54/120
g default
v 8.588523 0.041428 0.500000
v 10.248142 0.041428 0.500000
v 8.588523 13.397821 0.500000
v 10.248142 13.397821 0.500000
v 8.588523 13.397821 -1.159498
v 10.248142 13.397821 -1.159498
v 8.588523 0.041428 -1.159498
v 10.248142 0.041428 -1.159498
vt 0.781402 0.661947
vt 0.781406 0.719507
vt 0.318166 0.661977
vt 0.318170 0.719537
vt 0.260611 0.661980
vt 0.260614 0.719541
vt 0.463243 0.057614
vt 0.463236 0.115174
vt 0.000007 0.057559
vt 0.000000 0.115119
vt 0.522312 0.000003
vt 0.522318 0.057563
vt 0.464756 0.000010
vt 0.464762 0.057570
vt 0.182427 0.777089
vt 0.182433 0.719533
vt 0.645663 0.777134
vt 0.645669 0.719578
vt 0.000014 0.000003
vt 0.463250 0.000058
vn 0.000000 0.000000 1.000000
vn 0.000000 0.000000 1.000000
vn 0.000000 0.000000 1.000000
vn 0.000000 0.000000 1.000000
vn 0.000000 1.000000 0.000000
vn 0.000000 1.000000 0.000000
vn 0.000000 1.000000 0.000000
vn 0.000000 1.000000 0.000000
vn 0.000000 0.000000 -1.000000
vn 0.000000 0.000000 -1.000000
vn 0.000000 0.000000 -1.000000
vn 0.000000 0.000000 -1.000000
vn 0.000000 -1.000000 0.000000
vn 0.000000 -1.000000 0.000000
vn 0.000000 -1.000000 0.000000
vn 0.000000 -1.000000 0.000000
vn 1.000000 0.000000 0.000000
vn 1.000000 0.000000 0.000000
vn 1.000000 0.000000 0.000000
vn 1.000000 0.000000 0.000000
vn -1.000000 0.000000 0.000000
vn -1.000000 0.000000 0.000000
vn -1.000000 0.000000 0.000000
vn -1.000000 0.000000 0.000000
s 1
g surfaceShatter shard4
usemtl initialShadingGroup
f 37/55/121 38/56/122 39/57/123
f 39/57/123 38/56/122 40/58/124
s 2
f 39/57/125 40/58/126 41/59/127
f 41/59/127 40/58/126 42/60/128
s 3
f 41/61/129 42/62/130 43/63/131
f 43/63/131 42/62/130 44/64/132
s 4
f 43/65/133 44/66/134 37/67/135
f 37/67/135 44/66/134 38/68/136
s 5
f 38/69/137 44/70/138 40/71/139
f 40/71/139 44/70/138 42/72/140
s 6
f 43/63/141 37/73/142 41/61/143
f 41/61/143 37/73/142 39/74/144
g default
v -4.443848 0.699033 0.500000
v -2.832684 0.699033 0.500000
v -4.443848 13.155693 0.500000
v -2.832684 13.155693 0.500000
v -4.443848 13.155693 0.016267
v -2.832684 13.155693 0.016267
v -4.443848 0.699033 0.016267
v -2.832684 0.699033 0.016267
v -3.625693 14.055427 0.500000
v -3.625693 14.055427 0.016267
v -3.625693 0.699033 0.016267
v -3.625693 0.699033 0.500000
vt 0.463238 0.944121
vt 0.463236 0.972496
vt 0.031207 0.944092
vt 0.000000 0.972466
vt 0.091214 0.325340
vt 0.136114 0.290741
vt 0.107458 0.330915
vt 0.136872 0.305734
vt 0.135156 0.769697
vt 0.106225 0.765262
vt 0.091223 0.774298
vt 0.135415 0.784872
vt 0.178011 0.773842
vt 0.163273 0.765231
vt 0.181957 0.326146
vt 0.165207 0.332494
vt 0.031203 0.999972
vt 0.463234 1.000000
vn 0.000000 0.000000 1.000000
vn 0.000000 0.000000 1.000000
vn 0.000000 0.000000 1.000000
vn 0.000000 0.000000 1.000000
vn -0.739852 0.672770 0.000000
vn 0.000000 1.000000 0.000000
vn -0.739852 0.672770 0.000000
vn 0.000000 1.000000 0.000000
vn 0.000000 0.000000 -1.000000
vn 0.000000 0.000000 -1.000000
vn 0.000000 0.000000 -1.000000
vn 0.000000 0.000000 -1.000000
vn 0.000000 -1.000000 0.000000
vn 0.000000 -1.000000 0.000000
vn 0.000000 -1.000000 0.000000
vn 0.000000 -1.000000 0.000000
vn 1.000000 0.000000 0.000000
vn 1.000000 0.000000 0.000000
vn 1.000000 0.000000 0.000000
vn 1.000000 0.000000 0.000000
vn -1.000000 0.000000 0.000000
vn -1.000000 0.000000 0.000000
vn -1.000000 0.000000 0.000000
vn -1.000000 0.000000 0.000000
vn 0.000000 1.000000 0.000000
vn 0.750199 0.661212 0.000000
vn 0.000000 1.000000 0.000000
vn 0.750199 0.661212 0.000000
vn 0.000000 0.000000 -1.000000
vn 0.000000 0.000000 -1.000000
vn 0.000000 0.000000 -1.000000
vn 0.000000 0.000000 -1.000000
vn 0.000000 -1.000000 0.000000
vn 0.000000 -1.000000 0.000000
vn 0.000000 -1.000000 0.000000
vn 0.000000 -1.000000 0.000000
vn 0.000000 0.000000 1.000000
vn 0.000000 0.000000 1.000000
vn 0.000000 0.000000 1.000000
vn 0.000000 0.000000 1.000000
s 1
g surfaceShatter shard5
usemtl initialShadingGroup
f 45/75/145 56/76/146 47/77/147
f 47/77/147 56/76/146 53/78/148
s 2
f 47/79/149 53/80/150 49/81/151
f 49/81/151 53/80/150 54/82/152
s 3
f 54/82/153 55/83/154 49/81/155
f 49/81/155 55/83/154 51/84/156
s 4
f 51/84/157 55/83/158 45/85/159
f 45/85/159 55/83/158 56/86/160
s 5
f 46/87/161 52/88/162 48/89/163
f 48/89/163 52/88/162 50/90/164
s 6
f 51/84/165 45/85/166 49/81/167
f 49/81/167 45/85/166 47/79/168
s 7
f 53/80/169 48/89/170 54/82/171
f 54/82/171 48/89/170 50/90/172
s 8
f 54/82/173 50/90/174 55/83/175
f 55/83/175 50/90/174 52/88/176
s 9
f 56/86/177 55/83/178 46/87/179
f 46/87/179 55/83/178 52/88/180
s 10
f 53/78/181 56/76/182 48/91/183
f 48/91/183 56/76/182 46/92/184
g default
v -6.961242 11.684319 0.013174
v -6.961242 10.073155 0.013174
v 8.613330 11.684319 0.013174
v 8.613330 10.073155 0.013174
v 8.613330 11.684319 -0.470560
v 8.613330 10.073155 -0.470560
v -6.961242 11.684319 -0.470560
v -6.961242 10.073155 -0.470560
vt 0.722604 0.550155
vt 0.722596 0.606035
vt 0.182436 0.550070
vt 0.182427 0.605950
vt 0.568697 0.115160
vt 0.568725 0.203405
vt 0.559239 0.129590
vt 0.557946 0.188923
vt 0.010780 0.129719
vt 0.009494 0.189052
vt 0.000000 0.115237
vt 0.000037 0.203482
vn 0.000000 0.000000 1.000000
vn 0.000000 0.000000 1.000000
vn 0.000000 0.000000 1.000000
vn 0.000000 0.000000 1.000000
vn 1.000000 0.000000 0.000000
vn 1.000000 0.000000 0.000000
vn 1.000000 0.000000 0.000000
vn 1.000000 0.000000 0.000000
vn 0.000000 0.000000 -1.000000
vn 0.000000 0.000000 -1.000000
vn 0.000000 0.000000 -1.000000
vn 0.000000 0.000000 -1.000000
vn -1.000000 0.000000 0.000000
vn -1.000000 0.000000 0.000000
vn -1.000000 0.000000 0.000000
vn -1.000000 0.000000 0.000000
vn 0.000000 -1.000000 0.000000
vn 0.000000 -1.000000 0.000000
vn 0.000000 -1.000000 0.000000
vn 0.000000 -1.000000 0.000000
vn 0.000000 1.000000 0.000000
vn 0.000000 1.000000 0.000000
vn 0.000000 1.000000 0.000000
vn 0.000000 1.000000 0.000000
s 1
g surfaceShatter shard6
usemtl initialShadingGroup
f 57/93/185 58/94/186 59/95/187
f 59/95/187 58/94/186 60/96/188
s 2
f 59/97/189 60/98/190 61/99/191
f 61/99/191 60/98/190 62/100/192
s 3
f 61/99/193 62/100/194 63/101/195
f 63/101/195 62/100/194 64/102/196
s 4
f 63/101/197 64/102/198 57/103/199
f 57/103/199 64/102/198 58/104/200
s 5
f 58/104/201 64/102/202 60/98/203
f 60/98/203 64/102/202 62/100/204
s 6
f 63/101/205 57/103/206 61/99/207
f 61/99/207 57/103/206 59/97/208
g default
v -6.961242 3.632135 0.013174
v -6.961242 2.020971 0.013174
v 8.613330 3.632135 0.013174
v 8.613330 2.020971 0.013174
v 8.613330 3.632135 -0.470560
v 8.613330 2.020971 -0.470560
v -6.961242 3.632135 -0.470560
v -6.961242 2.020971 -0.470560
vt 0.783405 0.606026
vt 0.783413 0.661906
vt 0.243237 0.606103
vt 0.243245 0.661983
vt 0.782808 0.494118
vt 0.782816 0.549997
vt 0.766031 0.494120
vt 0.766039 0.550000
vt 0.225863 0.494197
vt 0.225871 0.550077
vt 0.802953 0.000003
vt 0.802960 0.055883
vt 0.786175 0.000006
vt 0.786183 0.055885
vt 0.786259 0.596053
vt 0.803036 0.596050
vt 0.820403 0.540171
vt 0.803626 0.540173
vt 0.820327 0.000003
vt 0.803549 0.000005
vn 0.000000 0.000000 1.000000
vn 0.000000 0.000000 1.000000
vn 0.000000 0.000000 1.000000
vn 0.000000 0.000000 1.000000
vn 1.000000 0.000000 0.000000
vn 1.000000 0.000000 0.000000
vn 1.000000 0.000000 0.000000
vn 1.000000 0.000000 0.000000
vn 0.000000 0.000000 -1.000000
vn 0.000000 0.000000 -1.000000
vn 0.000000 0.000000 -1.000000
vn 0.000000 0.000000 -1.000000
vn -1.000000 0.000000 0.000000
vn -1.000000 0.000000 0.000000
vn -1.000000 0.000000 0.000000
vn -1.000000 0.000000 0.000000
vn 0.000000 -1.000000 0.000000
vn 0.000000 -1.000000 0.000000
vn 0.000000 -1.000000 0.000000
vn 0.000000 -1.000000 0.000000
vn 0.000000 1.000000 0.000000
vn 0.000000 1.000000 0.000000
vn 0.000000 1.000000 0.000000
vn 0.000000 1.000000 0.000000
s 1
g surfaceShatter shard7
usemtl initialShadingGroup
f 65/105/209 66/106/210 67/107/211
f 67/107/211 66/106/210 68/108/212
s 2
f 67/109/213 68/110/214 69/111/215
f 69/111/215 68/110/214 70/112/216
s 3
f 69/111/217 70/112/218 71/113/219
f 71/113/219 70/112/218 72/114/220
s 4
f 71/115/221 72/116/222 65/117/223
f 65/117/223 72/116/222 66/118/224
s 5
f 66/118/225 72/116/226 68/119/227
f 68/119/227 72/116/226 70/120/228
s 6
f 71/121/229 65/122/230 69/123/231
f 69/123/231 65/122/230 67/124/232
g default
v -1.817342 0.699033 0.500000
v -0.999187 0.699033 0.500000
v -1.817342 13.155693 0.500000
v -0.999187 14.055427 0.500000
v -1.817342 13.155693 0.016267
v -0.999187 14.055427 0.016267
v -0.999187 0.699033 0.016267
v -1.817342 0.699033 0.016267
v -0.206178 0.699033 0.500000
v -0.206178 0.699033 0.016267
v -0.206178 13.155693 0.500000
v -0.206178 13.155693 0.016267
vt 0.463238 0.833067
vt 0.463236 0.861443
vt 0.031207 0.833038
vt 0.000000 0.861412
vt 0.660214 0.034607
vt 0.705109 0.000002
vt 0.676458 0.040180
vt 0.705869 0.014995
vt 0.704220 0.478958
vt 0.675288 0.474528
vt 0.660288 0.483565
vt 0.704481 0.494133
vt 0.747075 0.483097
vt 0.732336 0.474488
vt 0.750957 0.035400
vt 0.734208 0.041751
vt 0.031203 0.888917
vt 0.463234 0.888946
vn 0.000000 0.000000 1.000000
vn 0.000000 0.000000 1.000000
vn 0.000000 0.000000 1.000000
vn 0.000000 0.000000 1.000000
vn -0.739852 0.672770 0.000000
vn 0.000000 1.000000 0.000000
vn -0.739852 0.672770 0.000000
vn 0.000000 1.000000 0.000000
vn 0.000000 0.000000 -1.000000
vn 0.000000 0.000000 -1.000000
vn 0.000000 0.000000 -1.000000
vn 0.000000 0.000000 -1.000000
vn 0.000000 -1.000000 0.000000
vn 0.000000 -1.000000 0.000000
vn 0.000000 -1.000000 0.000000
vn 0.000000 -1.000000 0.000000
vn 1.000000 0.000000 0.000000
vn 1.000000 0.000000 0.000000
vn 1.000000 0.000000 0.000000
vn 1.000000 0.000000 0.000000
vn -1.000000 0.000000 0.000000
vn -1.000000 0.000000 0.000000
vn -1.000000 0.000000 0.000000
vn -1.000000 0.000000 0.000000
vn 0.000000 1.000000 0.000000
vn 0.750199 0.661212 0.000000
vn 0.000000 1.000000 0.000000
vn 0.750199 0.661212 0.000000
vn 0.000000 0.000000 -1.000000
vn 0.000000 0.000000 -1.000000
vn 0.000000 0.000000 -1.000000
vn 0.000000 0.000000 -1.000000
vn 0.000000 -1.000000 0.000000
vn 0.000000 -1.000000 0.000000
vn 0.000000 -1.000000 0.000000
vn 0.000000 -1.000000 0.000000
vn 0.000000 0.000000 1.000000
vn 0.000000 0.000000 1.000000
vn 0.000000 0.000000 1.000000
vn 0.000000 0.000000 1.000000
s 1
g surfaceShatter shard8
usemtl initialShadingGroup
f 73/125/233 74/126/234 75/127/235
f 75/127/235 74/126/234 76/128/236
s 2
f 75/129/237 76/130/238 77/131/239
f 77/131/239 76/130/238 78/132/240
s 3
f 78/132/241 79/133/242 77/131/243
f 77/131/243 79/133/242 80/134/244
s 4
f 80/134/245 79/133/246 73/135/247
f 73/135/247 79/133/246 74/136/248
s 5
f 81/137/249 82/138/250 83/139/251
f 83/139/251 82/138/250 84/140/252
s 6
f 80/134/253 73/135/254 77/131/255
f 77/131/255 73/135/254 75/129/256
s 7
f 76/130/257 83/139/258 78/132/259
f 78/132/259 83/139/258 84/140/260
s 8
f 78/132/261 84/140/262 79/133/263
f 79/133/263 84/140/262 82/138/264
s 9
f 74/136/265 79/133/266 81/137/267
f 81/137/267 79/133/266 82/138/268
s 10
f 76/128/269 74/126/270 83/141/271
f 83/141/271 74/126/270 81/142/272
g default
v -4.443848 0.699033 0.500000
v -3.625693 0.699033 0.500000
v -4.443848 13.155693 0.500000
v -3.625693 14.055427 0.500000
v -4.443848 13.155693 0.016267
v -3.625693 14.055427 0.016267
v -3.625693 0.699033 0.016267
v -4.443848 0.699033 0.016267
v -2.832684 0.699033 0.500000
v -2.832684 0.699033 0.016267
v -2.832684 13.155693 0.500000
v -2.832684 13.155693 0.016267
vt 0.463238 0.944121
vt 0.463236 0.972496
vt 0.031207 0.944092
vt 0.000000 0.972466
vt 0.091214 0.325340
vt 0.136114 0.290741
vt 0.107458 0.330915
vt 0.136872 0.305734
vt 0.135156 0.769697
vt 0.106225 0.765262
vt 0.091223 0.774298
vt 0.135415 0.784872
vt 0.178011 0.773842
vt 0.163273 0.765231
vt 0.181957 0.326146
vt 0.165207 0.332494
vt 0.031203 0.999972
vt 0.463234 1.000000
vn 0.000000 0.000000 1.000000
vn 0.000000 0.000000 1.000000
vn 0.000000 0.000000 1.000000
vn 0.000000 0.000000 1.000000
vn -0.739852 0.672770 0.000000
vn 0.000000 1.000000 0.000000
vn -0.739852 0.672770 0.000000
vn 0.000000 1.000000 0.000000
vn 0.000000 0.000000 -1.000000
vn 0.000000 0.000000 -1.000000
vn 0.000000 0.000000 -1.000000
vn 0.000000 0.000000 -1.000000
vn 0.000000 -1.000000 0.000000
vn 0.000000 -1.000000 0.000000
vn 0.000000 -1.000000 0.000000
vn 0.000000 -1.000000 0.000000
vn 1.000000 0.000000 0.000000
vn 1.000000 0.000000 0.000000
vn 1.000000 0.000000 0.000000
vn 1.000000 0.000000 0.000000
vn -1.000000 0.000000 0.000000
vn -1.000000 0.000000 0.000000
vn -1.000000 0.000000 0.000000
vn -1.000000 0.000000 0.000000
vn 0.000000 1.000000 0.000000
vn 0.750199 0.661212 0.000000
vn 0.000000 1.000000 0.000000
vn 0.750199 0.661212 0.000000
vn 0.000000 0.000000 -1.000000
vn 0.000000 0.000000 -1.000000
vn 0.000000 0.000000 -1.000000
vn 0.000000 0.000000 -1.000000
vn 0.000000 -1.000000 0.000000
vn 0.000000 -1.000000 0.000000
vn 0.000000 -1.000000 0.000000
vn 0.000000 -1.000000 0.000000
vn 0.000000 0.000000 1.000000
vn 0.000000 0.000000 1.000000
vn 0.000000 0.000000 1.000000
vn 0.000000 0.000000 1.000000
s 1
g surfaceShatter shard9
usemtl initialShadingGroup
f 85/143/273 86/144/274 87/145/275
f 87/145/275 86/144/274 88/146/276
s 2
f 87/147/277 88/148/278 89/149/279
f 89/149/279 88/148/278 90/150/280
s 3
f 90/150/281 91/151/282 89/149/283
f 89/149/283 91/151/282 92/152/284
s 4
f 92/152/285 91/151/286 85/153/287
f 85/153/287 91/151/286 86/154/288
s 5
f 93/155/289 94/156/290 95/157/291
f 95/157/291 94/156/290 96/158/292
s 6
f 92/152/293 85/153/294 89/149/295
f 89/149/295 85/153/294 87/147/296
s 7
f 88/148/297 95/157/298 90/150/299
f 90/150/299 95/157/298 96/158/300
s 8
f 90/150/301 96/158/302 91/151/303
f 91/151/303 96/158/302 94/156/304
s 9
f 86/154/305 91/151/306 93/155/307
f 93/155/307 91/151/306 94/156/308
s 10
f 88/146/309 86/144/310 95/159/311
f 95/159/311 86/144/310 93/160/312
g default
v 3.364784 0.699033 0.500000
v 4.182939 0.699033 0.500000
v 3.364784 13.155693 0.500000
v 4.182939 14.055427 0.500000
v 3.364784 13.155693 0.016267
v 4.182939 14.055427 0.016267
v 4.182939 0.699033 0.016267
v 3.364784 0.699033 0.016267
v 4.975948 0.699033 0.500000
v 4.975948 0.699033 0.016267
v 4.975948 13.155693 0.500000
v 4.975948 13.155693 0.016267
vt 0.784651 0.777113
vt 0.784656 0.805489
vt 0.352621 0.777180
vt 0.321420 0.805560
vt 0.533357 0.203410
vt 0.567967 0.248300
vt 0.527782 0.219655
vt 0.552975 0.249066
vt 0.089014 0.247424
vt 0.093439 0.218492
vt 0.084404 0.203490
vt 0.073840 0.247685
vt 0.084867 0.290277
vt 0.093479 0.275540
vt 0.532574 0.294155
vt 0.526225 0.277404
vt 0.352629 0.833059
vt 0.784660 0.832992
vn 0.000000 0.000000 1.000000
vn 0.000000 0.000000 1.000000
vn 0.000000 0.000000 1.000000
vn 0.000000 0.000000 1.000000
vn -0.739852 0.672770 0.000000
vn 0.000000 1.000000 0.000000
vn -0.739852 0.672770 0.000000
vn 0.000000 1.000000 0.000000
vn 0.000000 0.000000 -1.000000
vn 0.000000 0.000000 -1.000000
vn 0.000000 0.000000 -1.000000
vn 0.000000 0.000000 -1.000000
vn 0.000000 -1.000000 0.000000
vn 0.000000 -1.000000 0.000000
vn 0.000000 -1.000000 0.000000
vn 0.000000 -1.000000 0.000000
vn 1.000000 0.000000 0.000000
vn 1.000000 0.000000 0.000000
vn 1.000000 0.000000 0.000000
vn 1.000000 0.000000 0.000000
vn -1.000000 0.000000 0.000000
vn -1.000000 0.000000 0.000000
vn -1.000000 0.000000 0.000000
vn -1.000000 0.000000 0.000000
vn 0.000000 1.000000 0.000000
vn 0.750199 0.661212 0.000000
vn 0.000000 1.000000 0.000000
vn 0.750199 0.661212 0.000000
vn 0.000000 0.000000 -1.000000
vn 0.000000 0.000000 -1.000000
vn 0.000000 0.000000 -1.000000
vn 0.000000 0.000000 -1.000000
vn 0.000000 -1.000000 0.000000
vn 0.000000 -1.000000 0.000000
vn 0.000000 -1.000000 0.000000
vn 0.000000 -1.000000 0.000000
vn 0.000000 0.000000 1.000000
vn 0.000000 0.000000 1.000000
vn 0.000000 0.000000 1.000000
vn 0.000000 0.000000 1.000000
s 1
g surfaceShatter shard10
usemtl initialShadingGroup
f 97/161/313 98/162/314 99/163/315
f 99/163/315 98/162/314 100/164/316
s 2
f 99/165/317 100/166/318 101/167/319
f 101/167/319 100/166/318 102/168/320
s 3
f 102/168/321 103/169/322 101/167/323
f 101/167/323 103/169/322 104/170/324
s 4
f 104/170/325 103/169/326 97/171/327
f 97/171/327 103/169/326 98/172/328
s 5
f 105/173/329 106/174/330 107/175/331
f 107/175/331 106/174/330 108/176/332
s 6
f 104/170/333 97/171/334 101/167/335
f 101/167/335 97/171/334 99/165/336
s 7
f 100/166/337 107/175/338 102/168/339
f 102/168/339 107/175/338 108/176/340
s 8
f 102/168/341 108/176/342 103/169/343
f 103/169/343 108/176/342 106/174/344
s 9
f 98/172/345 103/169/346 105/173/347
f 105/173/347 103/169/346 106/174/348
s 10
f 100/164/349 98/162/350 107/177/351
f 107/177/351 98/162/350 105/178/352
