# This file uses centimeters as units for non-parametric coordinates.

mtllib fence_mod_01.mtl
g default
v 5.870137 0.699033 0.500000
v 7.481301 0.699033 0.500000
v 5.870137 13.155693 0.500000
v 7.481301 13.155693 0.500000
v 5.870137 13.155693 0.016267
v 7.481301 13.155693 0.016267
v 5.870137 0.699033 0.016267
v 7.481301 0.699033 0.016267
v 6.688292 14.055427 0.500000
v 6.688292 14.055427 0.016267
v 6.688292 0.699033 0.016267
v 6.688292 0.699033 0.500000
v -1.817342 0.699033 0.500000
v -0.206178 0.699033 0.500000
v -1.817342 13.155693 0.500000
v -0.206178 13.155693 0.500000
v -1.817342 13.155693 0.016267
v -0.206178 13.155693 0.016267
v -1.817342 0.699033 0.016267
v -0.206178 0.699033 0.016267
v -0.999187 14.055427 0.500000
v -0.999187 14.055427 0.016267
v -0.999187 0.699033 0.016267
v -0.999187 0.699033 0.500000
v 0.688011 0.699033 0.500000
v 2.299175 0.699033 0.500000
v 0.688011 13.155693 0.500000
v 2.299175 13.155693 0.500000
v 0.688011 13.155693 0.016267
v 2.299175 13.155693 0.016267
v 0.688011 0.699033 0.016267
v 2.299175 0.699033 0.016267
v 1.506166 14.055427 0.500000
v 1.506166 14.055427 0.016267
v 1.506166 0.699033 0.016267
v 1.506166 0.699033 0.500000
v 3.364784 0.699033 0.500000
v 4.975948 0.699033 0.500000
v 3.364784 13.155693 0.500000
v 4.975948 13.155693 0.500000
v 3.364784 13.155693 0.016267
v 4.975948 13.155693 0.016267
v 3.364784 0.699033 0.016267
v 4.975948 0.699033 0.016267
v 4.182939 14.055427 0.500000
v 4.182939 14.055427 0.016267
v 4.182939 0.699033 0.016267
v 4.182939 0.699033 0.500000
v 8.588523 0.041428 0.500000
v 10.248142 0.041428 0.500000
v 8.588523 13.397821 0.500000
v 10.248142 13.397821 0.500000
v 8.588523 13.397821 -1.159498
v 10.248142 13.397821 -1.159498
v 8.588523 0.041428 -1.159498
v 10.248142 0.041428 -1.159498
v -4.443848 0.699033 0.500000
v -2.832684 0.699033 0.500000
v -4.443848 13.155693 0.500000
v -2.832684 13.155693 0.500000
v -4.443848 13.155693 0.016267
v -2.832684 13.155693 0.016267
v -4.443848 0.699033 0.016267
v -2.832684 0.699033 0.016267
v -3.625693 14.055427 0.500000
v -3.625693 14.055427 0.016267
v -3.625693 0.699033 0.016267
v -3.625693 0.699033 0.500000
v -6.961242 11.684319 0.013174
v -6.961242 10.073155 0.013174
v 8.613330 11.684319 0.013174
v 8.613330 10.073155 0.013174
v 8.613330 11.684319 -0.470560
v 8.613330 10.073155 -0.470560
v -6.961242 11.684319 -0.470560
v -6.961242 10.073155 -0.470560
v -6.961242 3.632135 0.013174
v -6.961242 2.020971 0.013174
v 8.613330 3.632135 0.013174
v 8.613330 2.020971 0.013174
v 8.613330 3.632135 -0.470560
v 8.613330 2.020971 -0.470560
v -6.961242 3.632135 -0.470560
v -6.961242 2.020971 -0.470560
vt 0.569148 0.483571
vt 0.927990 0.888946
vt 0.569000 0.034613
vt 0.659743 0.035391
vt 0.585245 0.040183
vt 0.642995 0.041744
vt 0.584147 0.474531
vt 0.641195 0.474482
vt 0.464756 0.861411
vt 0.614652 0.014993
vt 0.613080 0.478956
vt 0.927992 0.861442
vt 0.660288 0.483565
vt 0.463236 0.861443
vt 0.000000 0.861412
vt 0.660214 0.034607
vt 0.705869 0.014995
vt 0.676458 0.040180
vt 0.704220 0.478958
vt 0.675288 0.474528
vt 0.463234 0.888946
vt 0.732336 0.474488
vt 0.734208 0.041751
vt 0.750957 0.035400
vt 0.000010 0.744766
vt 0.897587 0.917320
vt 0.434351 0.917289
vt 0.000000 0.295808
vt 0.045659 0.276203
vt 0.016244 0.301384
vt 0.043942 0.740165
vt 0.015011 0.735731
vt 0.897585 0.944823
vt 0.072059 0.735699
vt 0.073993 0.302962
vt 0.090743 0.296614
vt 0.084404 0.203490
vt 0.784656 0.805489
vt 0.321420 0.805560
vt 0.533357 0.203410
vt 0.552975 0.249066
vt 0.527782 0.219655
vt 0.089014 0.247424
vt 0.093439 0.218492
vt 0.784660 0.832992
vt 0.093479 0.275540
vt 0.526225 0.277404
vt 0.532574 0.294155
vt 0.000014 0.000003
vt 0.464762 0.057570
vt 0.645663 0.777134
vt 0.318166 0.661977
vt 0.645669 0.719578
vt 0.463243 0.057614
vt 0.182433 0.719533
vt 0.522312 0.000003
vt 0.091223 0.774298
vt 0.463236 0.972496
vt 0.000000 0.972466
vt 0.091214 0.325340
vt 0.136872 0.305734
vt 0.107458 0.330915
vt 0.135156 0.769697
vt 0.106225 0.765262
vt 0.463234 1.000000
vt 0.163273 0.765231
vt 0.165207 0.332494
vt 0.181957 0.326146
vt 0.000000 0.115237
vt 0.000037 0.203482
vt 0.568725 0.203405
vt 0.568697 0.115160
vt 0.557946 0.188923
vt 0.559239 0.129590
vt 0.009494 0.189052
vt 0.010780 0.129719
vt 0.135415 0.784872
vt 0.178011 0.773842
vt 0.136114 0.290741
vt 0.031203 0.999972
vt 0.463238 0.944121
vt 0.031207 0.944092
vt 0.704481 0.494133
vt 0.747075 0.483097
vt 0.705109 0.000002
vt 0.031203 0.888917
vt 0.463238 0.833067
vt 0.031207 0.833038
vt 0.044201 0.755340
vt 0.086797 0.744310
vt 0.044901 0.261209
vt 0.465555 0.944795
vt 0.897589 0.888944
vt 0.465558 0.888915
vt 0.073840 0.247685
vt 0.084867 0.290277
vt 0.567967 0.248300
vt 0.352629 0.833059
vt 0.784651 0.777113
vt 0.352621 0.777180
vt 0.613343 0.494131
vt 0.655935 0.483088
vt 0.613890 0.000000
vt 0.495959 0.888917
vt 0.927993 0.833066
vt 0.495963 0.833037
vt 0.803626 0.540173
vt 0.783413 0.661906
vt 0.786259 0.596053
vt 0.782808 0.494118
vt 0.766039 0.550000
vt 0.766031 0.494120
vt 0.802960 0.055883
vt 0.802953 0.000003
vt 0.786183 0.055885
vt 0.803036 0.596050
vt 0.820327 0.000003
vt 0.243245 0.661983
vt 0.783405 0.606026
vt 0.803549 0.000005
vt 0.722596 0.606035
vt 0.722604 0.550155
vt 0.000000 0.115119
vt 0.522318 0.057563
vt 0.781406 0.719507
vt 0.182427 0.777089
vt 0.000007 0.057559
vt 0.781402 0.661947
vt 0.464756 0.000010
vt 0.260614 0.719541
vt 0.463236 0.115174
vt 0.318170 0.719537
vt 0.463250 0.000058
vt 0.260611 0.661980
vt 0.243237 0.606103
vt 0.782816 0.549997
vt 0.182436 0.550070
vt 0.182427 0.605950
vt 0.225863 0.494197
vt 0.225871 0.550077
vt 0.820403 0.540171
vt 0.786175 0.000006
vn 0.000000 0.000000 1.000000
vn 0.000000 0.000000 1.000000
vn 0.000000 0.000000 1.000000
vn 0.000000 0.000000 1.000000
vn -0.739852 0.672770 0.000000
vn 0.000000 1.000000 0.000000
vn 0.000000 1.000000 0.000000
vn -0.739852 0.672770 0.000000
vn 0.000000 0.000000 -1.000000
vn 0.000000 0.000000 -1.000000
vn 0.000000 0.000000 -1.000000
vn 0.000000 0.000000 -1.000000
vn 0.000000 -1.000000 0.000000
vn 0.000000 -1.000000 0.000000
vn 0.000000 -1.000000 0.000000
vn 0.000000 -1.000000 0.000000
vn 1.000000 0.000000 0.000000
vn 1.000000 0.000000 0.000000
vn 1.000000 0.000000 0.000000
vn 1.000000 0.000000 0.000000
vn -1.000000 0.000000 0.000000
vn -1.000000 0.000000 0.000000
vn -1.000000 0.000000 0.000000
vn -1.000000 0.000000 0.000000
vn 0.750199 0.661212 0.000000
vn 0.750199 0.661212 0.000000
vn 0.000000 0.000000 -1.000000
vn 0.000000 0.000000 -1.000000
vn 0.000000 -1.000000 0.000000
vn 0.000000 -1.000000 0.000000
vn 0.000000 0.000000 1.000000
vn 0.000000 0.000000 1.000000
vn 0.000000 0.000000 1.000000
vn 0.000000 0.000000 1.000000
vn 0.000000 0.000000 1.000000
vn 0.000000 0.000000 1.000000
vn -0.739852 0.672770 0.000000
vn 0.000000 1.000000 0.000000
vn 0.000000 1.000000 0.000000
vn -0.739852 0.672770 0.000000
vn 0.000000 0.000000 -1.000000
vn 0.000000 0.000000 -1.000000
vn 0.000000 0.000000 -1.000000
vn 0.000000 0.000000 -1.000000
vn 0.000000 -1.000000 0.000000
vn 0.000000 -1.000000 0.000000
vn 0.000000 -1.000000 0.000000
vn 0.000000 -1.000000 0.000000
vn 1.000000 0.000000 0.000000
vn 1.000000 0.000000 0.000000
vn 1.000000 0.000000 0.000000
vn 1.000000 0.000000 0.000000
vn -1.000000 0.000000 0.000000
vn -1.000000 0.000000 0.000000
vn -1.000000 0.000000 0.000000
vn -1.000000 0.000000 0.000000
vn 0.750199 0.661212 0.000000
vn 0.750199 0.661212 0.000000
vn 0.000000 0.000000 -1.000000
vn 0.000000 0.000000 -1.000000
vn 0.000000 -1.000000 0.000000
vn 0.000000 -1.000000 0.000000
vn 0.000000 0.000000 1.000000
vn 0.000000 0.000000 1.000000
vn 0.000000 0.000000 1.000000
vn 0.000000 0.000000 1.000000
vn 0.000000 0.000000 1.000000
vn 0.000000 0.000000 1.000000
vn -0.739852 0.672770 0.000000
vn 0.000000 1.000000 0.000000
vn 0.000000 1.000000 0.000000
vn -0.739852 0.672770 0.000000
vn 0.000000 0.000000 -1.000000
vn 0.000000 0.000000 -1.000000
vn 0.000000 0.000000 -1.000000
vn 0.000000 0.000000 -1.000000
vn 0.000000 -1.000000 0.000000
vn 0.000000 -1.000000 0.000000
vn 0.000000 -1.000000 0.000000
vn 0.000000 -1.000000 0.000000
vn 1.000000 0.000000 0.000000
vn 1.000000 0.000000 0.000000
vn 1.000000 0.000000 0.000000
vn 1.000000 0.000000 0.000000
vn -1.000000 0.000000 0.000000
vn -1.000000 0.000000 0.000000
vn -1.000000 0.000000 0.000000
vn -1.000000 0.000000 0.000000
vn 0.750199 0.661212 0.000000
vn 0.750199 0.661212 0.000000
vn 0.000000 0.000000 -1.000000
vn 0.000000 0.000000 -1.000000
vn 0.000000 -1.000000 0.000000
vn 0.000000 -1.000000 0.000000
vn 0.000000 0.000000 1.000000
vn 0.000000 0.000000 1.000000
vn 0.000000 0.000000 1.000000
vn 0.000000 0.000000 1.000000
vn 0.000000 0.000000 1.000000
vn 0.000000 0.000000 1.000000
vn -0.739852 0.672770 0.000000
vn 0.000000 1.000000 0.000000
vn 0.000000 1.000000 0.000000
vn -0.739852 0.672770 0.000000
vn 0.000000 0.000000 -1.000000
vn 0.000000 0.000000 -1.000000
vn 0.000000 0.000000 -1.000000
vn 0.000000 0.000000 -1.000000
vn 0.000000 -1.000000 0.000000
vn 0.000000 -1.000000 0.000000
vn 0.000000 -1.000000 0.000000
vn 0.000000 -1.000000 0.000000
vn 1.000000 0.000000 0.000000
vn 1.000000 0.000000 0.000000
vn 1.000000 0.000000 0.000000
vn 1.000000 0.000000 0.000000
vn -1.000000 0.000000 0.000000
vn -1.000000 0.000000 0.000000
vn -1.000000 0.000000 0.000000
vn -1.000000 0.000000 0.000000
vn 0.750199 0.661212 0.000000
vn 0.750199 0.661212 0.000000
vn 0.000000 0.000000 -1.000000
vn 0.000000 0.000000 -1.000000
vn 0.000000 -1.000000 0.000000
vn 0.000000 -1.000000 0.000000
vn 0.000000 0.000000 1.000000
vn 0.000000 0.000000 1.000000
vn 0.000000 0.000000 1.000000
vn 0.000000 0.000000 1.000000
vn 0.000000 0.000000 1.000000
vn 0.000000 0.000000 1.000000
vn 0.000000 1.000000 0.000000
vn 0.000000 1.000000 0.000000
vn 0.000000 1.000000 0.000000
vn 0.000000 1.000000 0.000000
vn 0.000000 0.000000 -1.000000
vn 0.000000 0.000000 -1.000000
vn 0.000000 0.000000 -1.000000
vn 0.000000 0.000000 -1.000000
vn 0.000000 -1.000000 0.000000
vn 0.000000 -1.000000 0.000000
vn 0.000000 -1.000000 0.000000
vn 0.000000 -1.000000 0.000000
vn 1.000000 0.000000 0.000000
vn 1.000000 0.000000 0.000000
vn 1.000000 0.000000 0.000000
vn 1.000000 0.000000 0.000000
vn -1.000000 0.000000 0.000000
vn -1.000000 0.000000 0.000000
vn -1.000000 0.000000 0.000000
vn -1.000000 0.000000 0.000000
vn 0.000000 0.000000 1.000000
vn 0.000000 0.000000 1.000000
vn 0.000000 0.000000 1.000000
vn 0.000000 0.000000 1.000000
vn -0.739852 0.672770 0.000000
vn 0.000000 1.000000 0.000000
vn 0.000000 1.000000 0.000000
vn -0.739852 0.672770 0.000000
vn 0.000000 0.000000 -1.000000
vn 0.000000 0.000000 -1.000000
vn 0.000000 0.000000 -1.000000
vn 0.000000 0.000000 -1.000000
vn 0.000000 -1.000000 0.000000
vn 0.000000 -1.000000 0.000000
vn 0.000000 -1.000000 0.000000
vn 0.000000 -1.000000 0.000000
vn 1.000000 0.000000 0.000000
vn 1.000000 0.000000 0.000000
vn 1.000000 0.000000 0.000000
vn 1.000000 0.000000 0.000000
vn -1.000000 0.000000 0.000000
vn -1.000000 0.000000 0.000000
vn -1.000000 0.000000 0.000000
vn -1.000000 0.000000 0.000000
vn 0.750199 0.661212 0.000000
vn 0.750199 0.661212 0.000000
vn 0.000000 0.000000 -1.000000
vn 0.000000 0.000000 -1.000000
vn 0.000000 -1.000000 0.000000
vn 0.000000 -1.000000 0.000000
vn 0.000000 0.000000 1.000000
vn 0.000000 0.000000 1.000000
vn 0.000000 0.000000 1.000000
vn 0.000000 0.000000 1.000000
vn 0.000000 0.000000 1.000000
vn 0.000000 0.000000 1.000000
vn 1.000000 0.000000 0.000000
vn 1.000000 0.000000 0.000000
vn 1.000000 0.000000 0.000000
vn 1.000000 0.000000 0.000000
vn 0.000000 0.000000 -1.000000
vn 0.000000 0.000000 -1.000000
vn 0.000000 0.000000 -1.000000
vn 0.000000 0.000000 -1.000000
vn -1.000000 0.000000 0.000000
vn -1.000000 0.000000 0.000000
vn -1.000000 0.000000 0.000000
vn -1.000000 0.000000 0.000000
vn 0.000000 -1.000000 0.000000
vn 0.000000 -1.000000 0.000000
vn 0.000000 -1.000000 0.000000
vn 0.000000 -1.000000 0.000000
vn 0.000000 1.000000 0.000000
vn 0.000000 1.000000 0.000000
vn 0.000000 1.000000 0.000000
vn 0.000000 1.000000 0.000000
vn 0.000000 0.000000 1.000000
vn 0.000000 0.000000 1.000000
vn 0.000000 0.000000 1.000000
vn 0.000000 0.000000 1.000000
vn 1.000000 0.000000 0.000000
vn 1.000000 0.000000 0.000000
vn 1.000000 0.000000 0.000000
vn 1.000000 0.000000 0.000000
vn 0.000000 0.000000 -1.000000
vn 0.000000 0.000000 -1.000000
vn 0.000000 0.000000 -1.000000
vn 0.000000 0.000000 -1.000000
vn -1.000000 0.000000 0.000000
vn -1.000000 0.000000 0.000000
vn -1.000000 0.000000 0.000000
vn -1.000000 0.000000 0.000000
vn 0.000000 -1.000000 0.000000
vn 0.000000 -1.000000 0.000000
vn 0.000000 -1.000000 0.000000
vn 0.000000 -1.000000 0.000000
vn 0.000000 1.000000 0.000000
vn 0.000000 1.000000 0.000000
vn 0.000000 1.000000 0.000000
vn 0.000000 1.000000 0.000000
s 1
g fence_mod_01
usemtl initialShadingGroup
f 1/105/1 12/12/2 9/9/3 3/106/4
s 2
f 3/3/5 9/103/6 10/10/7 5/5/8
s 3
f 5/5/9 10/10/10 11/11/11 7/7/12
s 4
f 7/7/13 11/11/14 12/101/15 1/1/16
s off
f 2/102/17 8/8/18 6/6/19 4/4/20
f 7/7/21 1/1/22 3/3/23 5/5/24
s 2
f 9/103/6 4/4/25 6/6/26 10/10/7
s 3
f 11/11/11 10/10/10 6/6/27 8/8/28
s 4
f 12/101/15 11/11/14 8/8/29 2/102/30
s 1
f 9/9/3 12/12/2 2/2/31 4/104/32
s 5
f 13/87/33 24/14/34 21/15/35 15/88/36
s 6
f 15/16/37 21/85/38 22/17/39 17/18/40
s 7
f 17/18/41 22/17/42 23/19/43 19/20/44
s 8
f 19/20/45 23/19/46 24/83/47 13/13/48
s off
f 14/84/49 20/22/50 18/23/51 16/24/52
f 19/20/53 13/13/54 15/16/55 17/18/56
s 6
f 21/85/38 16/24/57 18/23/58 22/17/39
s 7
f 23/19/43 22/17/42 18/23/59 20/22/60
s 8
f 24/83/47 23/19/46 20/22/61 14/84/62
s 5
f 21/15/35 24/14/34 14/21/63 16/86/64
s 9
f 25/93/65 36/26/66 33/27/67 27/94/68
s 10
f 27/28/69 33/91/70 34/29/71 29/30/72
s 11
f 29/30/73 34/29/74 35/31/75 31/32/76
s 12
f 31/32/77 35/31/78 36/89/79 25/25/80
s off
f 26/90/81 32/34/82 30/35/83 28/36/84
f 31/32/85 25/25/86 27/28/87 29/30/88
s 10
f 33/91/70 28/36/89 30/35/90 34/29/71
s 11
f 35/31/75 34/29/74 30/35/91 32/34/92
s 12
f 36/89/79 35/31/78 32/34/93 26/90/94
s 9
f 33/27/67 36/26/66 26/33/95 28/92/96
s 13
f 37/99/97 48/38/98 45/39/99 39/100/100
s 14
f 39/40/101 45/97/102 46/41/103 41/42/104
s 15
f 41/42/105 46/41/106 47/43/107 43/44/108
s 16
f 43/44/109 47/43/110 48/95/111 37/37/112
s off
f 38/96/113 44/46/114 42/47/115 40/48/116
f 43/44/117 37/37/118 39/40/119 41/42/120
s 14
f 45/97/102 40/48/121 42/47/122 46/41/103
s 15
f 47/43/107 46/41/106 42/47/123 44/46/124
s 16
f 48/95/111 47/43/110 44/46/125 38/96/126
s 13
f 45/39/99 48/38/98 38/45/127 40/98/128
s off
f 49/128/129 50/125/130 52/132/131 51/52/132
f 51/52/133 52/132/134 54/130/135 53/134/136
f 53/54/137 54/131/138 56/123/139 55/127/140
f 55/56/141 56/124/142 50/50/143 49/129/144
f 50/126/145 56/55/146 54/53/147 52/51/148
f 55/127/149 49/49/150 51/133/151 53/54/152
s 17
f 57/81/153 68/58/154 65/59/155 59/82/156
s 18
f 59/60/157 65/79/158 66/61/159 61/62/160
s 19
f 61/62/161 66/61/162 67/63/163 63/64/164
s 20
f 63/64/165 67/63/166 68/77/167 57/57/168
s off
f 58/78/169 64/66/170 62/67/171 60/68/172
f 63/64/173 57/57/174 59/60/175 61/62/176
s 18
f 65/79/158 60/68/177 62/67/178 66/61/159
s 19
f 67/63/163 66/61/162 62/67/179 64/66/180
s 20
f 68/77/167 67/63/166 64/66/181 58/78/182
s 17
f 65/59/155 68/58/154 58/65/183 60/80/184
s off
f 69/122/185 70/121/186 72/138/187 71/137/188
f 71/72/189 72/71/190 74/73/191 73/74/192
f 73/74/193 74/73/194 76/75/195 75/76/196
f 75/76/197 76/75/198 70/70/199 69/69/200
f 70/70/201 76/75/202 74/73/203 72/71/204
f 75/76/205 69/69/206 71/72/207 73/74/208
f 77/119/209 78/108/210 80/118/211 79/135/212
f 79/110/213 80/136/214 82/111/215 81/112/216
f 81/112/217 82/111/218 84/140/219 83/139/220
f 83/114/221 84/113/222 78/115/223 77/142/224
f 78/115/225 84/113/226 82/116/227 80/109/228
f 83/141/229 77/107/230 79/120/231 81/117/232
