# This file uses centimeters as units for non-parametric coordinates.

mtllib bin.mtl
g default
v 1.064482 -0.014166 -0.773391
v 0.406596 -0.014166 -1.251374
v -0.406596 -0.014166 -1.251373
v -1.064482 -0.014166 -0.773391
v -1.315772 -0.014166 0.000000
v -1.064482 -0.014166 0.773391
v -0.406596 -0.014166 1.251373
v 0.406596 -0.014166 1.251373
v 1.064482 -0.014166 0.773391
v 1.315772 -0.014166 -0.000000
v -0.000000 -0.014166 -0.000000
v 0.448736 3.379286 1.381067
v -0.448736 3.379286 1.381067
v -1.174806 3.379286 0.853546
v -1.452140 3.379286 0.000000
v -1.174806 3.379286 -0.853546
v -0.448736 3.379286 -1.381067
v 0.448736 3.379286 -1.381067
v 1.174806 3.379286 -0.853546
v 1.452139 3.379286 0.000000
v 1.174805 3.379286 0.853546
v 1.235863 3.663319 -0.897908
v 0.472058 3.663319 -1.452845
v -0.472058 3.663319 -1.452845
v -1.235864 3.663319 -0.897907
v -1.527611 3.663319 0.000000
v -1.235864 3.663319 0.897908
v -0.472058 3.663319 1.452845
v 0.472058 3.663319 1.452845
v 1.235864 3.663319 0.897907
v 1.527611 3.663319 -0.000000
v 0.472058 3.337932 1.452845
v -0.472058 3.337932 1.452845
v -1.235864 3.337932 0.897908
v -1.527611 3.337932 0.000000
v -1.235864 3.337932 -0.897907
v -0.472058 3.337932 -1.452845
v 0.472058 3.337932 -1.452845
v 1.235864 3.337932 -0.897908
v 1.527611 3.337932 0.000000
v 1.235864 3.337932 0.897907
v 0.479142 3.663319 -0.348117
v 0.183016 3.663319 -0.563265
v -0.183016 3.663319 -0.563265
v -0.479143 3.663319 -0.348117
v -0.592255 3.663319 -0.000000
v -0.479143 3.663319 0.348116
v -0.183016 3.663319 0.563265
v 0.183016 3.663319 0.563265
v 0.479142 3.663319 0.348116
v 0.592254 3.663319 -0.000000
v 0.406566 3.663319 -0.295387
v 0.155294 3.663319 -0.477946
v -0.000000 3.663319 -0.000000
v -0.155295 3.663319 -0.477946
v -0.406566 3.663319 -0.295387
v -0.502545 3.663319 -0.000000
v -0.406566 3.663319 0.295387
v -0.155295 3.663319 0.477946
v 0.155294 3.663319 0.477946
v 0.406566 3.663319 0.295387
v 0.502545 3.663319 -0.000000
v -0.579083 3.967645 -0.000000
v -0.465971 3.967645 0.348116
v -0.406566 4.000152 0.295387
v -0.502545 4.000152 -0.000000
v 0.570513 3.968097 -0.000000
v 0.457401 3.968097 -0.348117
v 0.406566 4.000152 -0.295387
v 0.502545 4.000152 -0.000000
v 0.479142 3.893762 -0.348117
v 0.592254 3.893762 -0.000000
v 0.502545 3.893762 -0.000000
v 0.406566 3.893762 -0.295387
v -0.406566 3.903220 0.295387
v -0.479143 3.903220 0.348116
v -0.592255 3.903220 -0.000000
v -0.502545 3.903220 -0.000000
vt 0.606844 0.532880
vt 0.536747 0.481951
vt 0.450101 0.481951
vt 0.380003 0.532880
vt 0.353228 0.615284
vt 0.380003 0.697689
vt 0.450101 0.748618
vt 0.536747 0.748618
vt 0.606844 0.697689
vt 0.633619 0.615284
vt 0.000000 0.111060
vt 0.086633 0.109571
vt 0.173202 0.105933
vt 0.259654 0.100148
vt 0.345936 0.092219
vt 0.431995 0.082152
vt 0.517777 0.069952
vt 0.603231 0.055628
vt 0.688302 0.039187
vt 0.772939 0.020641
vt 0.857090 0.000000
vt 0.005134 0.548366
vt 0.104620 0.533471
vt 0.204107 0.518576
vt 0.303593 0.503681
vt 0.403080 0.488786
vt 0.502567 0.473891
vt 0.602053 0.458996
vt 0.701540 0.444100
vt 0.801027 0.429205
vt 0.900513 0.414310
vt 1.000000 0.399415
vt 0.961423 0.533122
vt 0.893176 0.459218
vt 0.794523 0.439543
vt 0.703147 0.481613
vt 0.653950 0.569357
vt 0.665723 0.669261
vt 0.733971 0.743165
vt 0.832623 0.762840
vt 0.924000 0.720770
vt 0.973197 0.633026
vt 0.493424 0.615284
vt 0.813573 0.601192
vt 0.989768 0.643167
vt 0.946134 0.728258
vt 0.864516 0.778085
vt 0.768891 0.778011
vt 0.687350 0.728059
vt 0.643847 0.642901
vt 0.651162 0.547556
vt 0.947649 0.350350
vt 0.707147 0.470032
vt 0.926734 0.470201
vt 0.982599 0.547811
vt 0.596920 0.424708
vt 0.998756 0.644984
vt 0.497433 0.439603
vt 0.397947 0.454498
vt 0.298460 0.469393
vt 0.198973 0.484288
vt 0.099487 0.499183
vt 0.000000 0.514078
vt 0.895380 0.380023
vt 0.994866 0.365127
vt 0.795893 0.394918
vt 0.332165 0.661519
vt 0.820959 0.663862
vt 0.782711 0.656234
vt 0.756252 0.627582
vt 0.176860 0.596108
vt 0.191379 0.553399
vt 0.806187 0.538521
vt 0.844435 0.546149
vt 0.870894 0.574801
vt 0.349165 0.619468
vt 0.359509 0.576334
vt 0.819840 0.654369
vt 0.787386 0.647897
vt 0.764935 0.623585
vt 0.176614 0.606293
vt 0.198850 0.545197
vt 0.807306 0.548014
vt 0.839760 0.554486
vt 0.862212 0.578798
vt 0.350197 0.609135
vt 0.205214 0.600295
vt 0.218502 0.567875
vt 0.223989 0.570865
vt 0.211121 0.601964
vt 0.321534 0.612147
vt 0.306516 0.644053
vt 0.301955 0.640367
vt 0.316320 0.610241
vt 0.311465 0.647688
vt 0.327690 0.613390
vt 0.324511 0.602038
vt 0.335483 0.569636
vt 0.223844 0.559740
vt 0.214095 0.565111
vt 0.199852 0.599810
vt 0.203916 0.610338
vt 0.991215 0.544671
vt 0.696407 0.409813
vt 0.932446 0.463028
vt 0.701447 0.462850
vt 0.839714 0.424037
vt 0.642552 0.544403
vt 0.634856 0.644704
vt 0.680620 0.734287
vt 0.766399 0.786836
vt 0.866995 0.786913
vt 0.952855 0.734496
vt 0.761367 0.393598
vt 0.667478 0.411743
vt 0.854776 0.373130
vt 0.001728 0.472920
vt 0.838584 0.433137
vt 0.097340 0.471276
vt 0.192881 0.467261
vt 0.288293 0.460876
vt 0.383518 0.452126
vt 0.478496 0.441016
vt 0.573169 0.427552
vt 0.875459 0.613534
vt 0.770761 0.554831
vt 0.866085 0.611664
vt 0.777246 0.561853
vt 0.849900 0.640530
vt 0.761061 0.590719
vt 0.751687 0.588849
vt 0.856385 0.647552
vt 0.301149 0.652043
vt 0.238345 0.529423
vt 0.324624 0.669332
vt 0.215943 0.516961
vn 0.587356 -0.038191 -0.808427
vn 0.587356 -0.038191 -0.808427
vn 0.587356 -0.038191 -0.808427
vn 0.587356 -0.038191 -0.808427
vn -0.000000 -0.038191 -0.999270
vn -0.000000 -0.038191 -0.999270
vn -0.000000 -0.038191 -0.999270
vn -0.000000 -0.038191 -0.999270
vn -0.587357 -0.038191 -0.808427
vn -0.587357 -0.038191 -0.808427
vn -0.587356 -0.038191 -0.808427
vn -0.587356 -0.038191 -0.808427
vn -0.950363 -0.038191 -0.308791
vn -0.950363 -0.038191 -0.308791
vn -0.950363 -0.038191 -0.308791
vn -0.950363 -0.038191 -0.308791
vn -0.950363 -0.038191 0.308791
vn -0.950363 -0.038191 0.308791
vn -0.950363 -0.038191 0.308791
vn -0.950363 -0.038191 0.308791
vn -0.587356 -0.038191 0.808427
vn -0.587356 -0.038191 0.808427
vn -0.587356 -0.038191 0.808427
vn -0.587356 -0.038191 0.808427
vn 0.000000 -0.038191 0.999270
vn 0.000000 -0.038191 0.999270
vn 0.000000 -0.038191 0.999270
vn 0.000000 -0.038191 0.999270
vn 0.587357 -0.038191 0.808427
vn 0.587357 -0.038191 0.808427
vn 0.587357 -0.038191 0.808427
vn 0.587357 -0.038191 0.808427
vn 0.950363 -0.038191 0.308792
vn 0.950363 -0.038191 0.308792
vn 0.950363 -0.038191 0.308792
vn 0.950363 -0.038191 0.308792
vn 0.950363 -0.038191 -0.308791
vn 0.950363 -0.038191 -0.308791
vn 0.950363 -0.038191 -0.308791
vn 0.950363 -0.038191 -0.308791
vn 0.000000 -1.000000 0.000000
vn 0.000000 -1.000000 0.000000
vn 0.000000 -1.000000 0.000000
vn 0.000000 -1.000000 0.000000
vn 0.000000 -1.000000 0.000000
vn 0.000000 -1.000000 0.000000
vn 0.000000 -1.000000 0.000000
vn 0.000000 -1.000000 0.000000
vn 0.000000 -1.000000 0.000000
vn 0.000000 -1.000000 0.000000
vn 0.000000 -1.000000 0.000000
vn 0.000000 1.000000 0.000001
vn 0.000000 1.000000 0.000000
vn 0.000000 1.000000 0.000000
vn 0.000000 1.000000 0.000000
vn 0.000000 1.000000 0.000000
vn 0.000000 1.000000 0.000000
vn 0.000000 1.000000 0.000000
vn 0.000000 1.000000 0.000000
vn 0.000000 1.000000 -0.000000
vn 0.000000 1.000000 -0.000000
vn 0.000000 1.000000 0.000000
vn 0.000000 0.000000 1.000000
vn 0.000000 0.000000 1.000000
vn 0.000000 0.000000 1.000000
vn 0.000000 0.000000 1.000000
vn -0.587785 0.000000 0.809017
vn -0.587785 0.000000 0.809017
vn -0.587785 0.000000 0.809017
vn -0.587785 0.000000 0.809017
vn -0.951057 0.000000 0.309017
vn -0.951057 0.000000 0.309017
vn -0.951057 0.000000 0.309017
vn -0.951057 0.000000 0.309017
vn -0.951057 0.000000 -0.309017
vn -0.951057 0.000000 -0.309017
vn -0.951057 0.000000 -0.309017
vn -0.951057 0.000000 -0.309017
vn -0.587785 0.000000 -0.809017
vn -0.587785 0.000000 -0.809017
vn -0.587785 0.000000 -0.809017
vn -0.587785 0.000000 -0.809017
vn -0.000000 0.000000 -1.000000
vn -0.000000 0.000000 -1.000000
vn -0.000000 0.000000 -1.000000
vn -0.000000 0.000000 -1.000000
vn 0.587785 -0.000000 -0.809017
vn 0.587785 -0.000000 -0.809017
vn 0.587785 -0.000000 -0.809017
vn 0.587785 -0.000000 -0.809017
vn 0.951057 0.000000 -0.309017
vn 0.951057 0.000000 -0.309017
vn 0.951057 0.000000 -0.309017
vn 0.951057 0.000000 -0.309017
vn 0.951057 0.000000 0.309017
vn 0.951057 0.000000 0.309017
vn 0.951057 0.000000 0.309017
vn 0.951057 0.000000 0.309017
vn 0.587785 0.000000 0.809017
vn 0.587785 0.000000 0.809017
vn 0.587785 0.000000 0.809017
vn 0.587785 0.000000 0.809017
vn 0.000000 -0.866484 -0.499205
vn 0.000000 -0.866484 -0.499205
vn 0.000000 -0.866484 -0.499205
vn 0.000000 -0.866484 -0.499205
vn 0.293425 -0.866483 -0.403867
vn 0.293425 -0.866483 -0.403867
vn 0.293425 -0.866483 -0.403867
vn 0.293425 -0.866483 -0.403867
vn 0.474773 -0.866484 -0.154263
vn 0.474773 -0.866484 -0.154263
vn 0.474773 -0.866484 -0.154263
vn 0.474773 -0.866484 -0.154263
vn 0.474773 -0.866484 0.154263
vn 0.474773 -0.866484 0.154263
vn 0.474773 -0.866484 0.154263
vn 0.474773 -0.866484 0.154263
vn 0.293426 -0.866484 0.403866
vn 0.293426 -0.866484 0.403866
vn 0.293426 -0.866484 0.403866
vn 0.293426 -0.866484 0.403866
vn 0.000000 -0.866484 0.499205
vn 0.000000 -0.866484 0.499205
vn 0.000000 -0.866484 0.499205
vn 0.000000 -0.866484 0.499205
vn -0.293426 -0.866483 0.403866
vn -0.293426 -0.866483 0.403866
vn -0.293426 -0.866483 0.403866
vn -0.293426 -0.866483 0.403866
vn -0.474774 -0.866483 0.154263
vn -0.474774 -0.866483 0.154263
vn -0.474774 -0.866483 0.154263
vn -0.474774 -0.866483 0.154263
vn -0.474772 -0.866484 -0.154263
vn -0.474772 -0.866484 -0.154263
vn -0.474772 -0.866484 -0.154263
vn -0.474772 -0.866484 -0.154263
vn -0.293425 -0.866483 -0.403866
vn -0.293425 -0.866483 -0.403867
vn -0.293425 -0.866483 -0.403867
vn -0.293425 -0.866483 -0.403867
vn -0.000000 1.000000 -0.000001
vn -0.000000 1.000000 -0.000001
vn -0.000000 1.000000 -0.000001
vn -0.000000 1.000000 -0.000001
vn 0.000000 1.000000 0.000000
vn 0.000000 1.000000 0.000000
vn 0.000000 1.000000 0.000000
vn 0.000000 1.000000 0.000000
vn 0.000000 1.000000 -0.000000
vn 0.000000 1.000000 -0.000000
vn 0.000000 1.000000 -0.000000
vn 0.000000 1.000000 -0.000000
vn 0.000000 1.000000 -0.000000
vn 0.000000 1.000000 -0.000000
vn 0.000000 1.000000 -0.000000
vn 0.000000 1.000000 -0.000000
vn 0.000000 1.000000 0.000000
vn 0.000000 1.000000 0.000000
vn 0.000000 1.000000 0.000000
vn 0.000000 1.000000 0.000000
vn 0.000000 1.000000 0.000000
vn 0.000000 1.000000 0.000000
vn 0.000000 1.000000 0.000000
vn 0.000000 1.000000 0.000000
vn 0.000000 1.000000 0.000000
vn 0.000000 1.000000 0.000000
vn 0.000000 1.000000 0.000000
vn 0.000000 1.000000 0.000000
vn 0.000000 1.000000 0.000000
vn 0.000000 1.000000 0.000000
vn 0.000000 1.000000 0.000000
vn 0.000000 1.000000 0.000000
vn -0.000000 1.000000 0.000000
vn -0.000000 1.000000 0.000000
vn -0.000000 1.000000 0.000000
vn -0.000000 1.000000 0.000000
vn 0.000000 1.000000 0.000000
vn 0.000000 1.000000 0.000000
vn 0.000000 1.000000 0.000000
vn 0.000000 1.000000 0.000000
vn -0.000001 1.000000 0.000002
vn -0.000001 1.000000 0.000002
vn -0.000001 1.000000 0.000002
vn -0.000001 1.000000 0.000002
vn 0.000000 1.000000 -0.000001
vn 0.000000 1.000000 -0.000001
vn 0.000000 1.000000 -0.000001
vn 0.000000 1.000000 -0.000001
vn 0.000000 1.000000 0.000000
vn 0.000000 1.000000 0.000000
vn 0.000000 1.000000 0.000000
vn 0.000000 1.000000 0.000000
vn 0.000000 1.000000 -0.000000
vn 0.000000 1.000000 -0.000000
vn 0.000000 1.000000 -0.000000
vn 0.000000 1.000000 -0.000000
vn -0.387800 0.913090 0.126006
vn -0.387800 0.913090 0.126006
vn -0.387800 0.913090 0.126006
vn -0.387800 0.913090 0.126006
vn 0.000000 1.000000 -0.000000
vn 0.000000 1.000000 -0.000000
vn 0.000000 1.000000 -0.000000
vn 0.000000 1.000000 -0.000000
vn 0.000000 1.000000 0.000000
vn 0.000000 1.000000 0.000000
vn 0.000000 1.000000 0.000000
vn 0.000000 1.000000 0.000000
vn 0.000000 1.000000 0.000001
vn 0.000000 1.000000 0.000001
vn 0.000000 1.000000 0.000001
vn 0.000000 1.000000 0.000001
vn -0.000001 1.000000 0.000000
vn -0.000001 1.000000 0.000000
vn -0.000001 1.000000 0.000000
vn -0.000001 1.000000 0.000000
vn 0.422518 0.895897 -0.137288
vn 0.422518 0.895897 -0.137288
vn 0.422518 0.895897 -0.137288
vn 0.422517 0.895897 -0.137288
vn -0.951055 0.000000 0.309023
vn -0.951055 0.000000 0.309023
vn -0.950188 0.042693 0.308741
vn -0.950311 0.039532 0.308781
vn 0.587785 0.000000 0.809017
vn 0.587785 0.000000 0.809017
vn 0.598435 -0.012294 0.801077
vn 0.597368 -0.011052 0.801891
vn 0.951055 0.000000 -0.309022
vn 0.951055 0.000000 -0.309022
vn 0.951055 0.000000 -0.309022
vn 0.951055 0.000000 -0.309022
vn -0.000000 0.000000 -1.000000
vn -0.000000 0.000000 -1.000000
vn -0.000000 0.000000 -1.000000
vn -0.000000 0.000000 -1.000000
vn 0.951055 0.000000 -0.309022
vn 0.951055 0.000000 -0.309022
vn 0.948649 0.071085 -0.308240
vn 0.949094 0.064178 -0.308385
vn -0.587786 0.000000 -0.809016
vn -0.587786 0.000000 -0.809016
vn -0.607229 -0.020577 -0.794261
vn -0.604551 -0.017704 -0.796370
vn -0.951055 0.000000 0.309022
vn -0.951055 0.000000 0.309022
vn -0.951055 0.000000 0.309022
vn -0.951055 0.000000 0.309022
vn 0.000001 -0.000000 1.000000
vn 0.000001 -0.000000 1.000000
vn 0.000001 -0.000000 1.000000
vn 0.000001 -0.000000 1.000000
vn 0.916266 0.267995 -0.297717
vn 0.916266 0.267995 -0.297717
vn -0.000000 -0.000000 1.000000
vn -0.000000 -0.000000 1.000000
vn -0.659433 -0.079332 -0.747566
vn -0.659433 -0.079332 -0.747566
vn 0.631128 -0.051520 0.773966
vn 0.631128 -0.051520 0.773966
vn -0.933570 0.190870 0.303341
vn -0.933570 0.190870 0.303341
vn -0.000000 0.000000 -1.000000
vn -0.000000 0.000000 -1.000000
vn 0.309016 0.000000 0.951057
vn 0.309016 0.000000 0.951057
vn 0.309016 0.000000 0.951057
vn 0.309016 0.000000 0.951057
vn 0.000000 1.000000 -0.000001
vn 0.000000 1.000000 -0.000001
vn 0.000000 1.000000 -0.000001
vn 0.000000 1.000000 -0.000001
vn -0.009409 -0.999951 0.003057
vn -0.009409 -0.999951 0.003057
vn -0.009409 -0.999951 0.003057
vn -0.009409 -0.999951 0.003057
vn -0.309016 0.000000 -0.951057
vn -0.309016 0.000000 -0.951057
vn -0.309016 0.000000 -0.951057
vn -0.309016 0.000000 -0.951057
s off
g pCylinder1
usemtl initialShadingGroup
f 1/11/1 2/12/2 18/119/3 19/117/4
f 2/12/5 3/13/6 17/120/7 18/119/8
f 3/13/9 4/14/10 16/121/11 17/120/12
f 4/14/13 5/15/14 15/122/15 16/121/16
f 5/15/17 6/16/18 14/123/19 15/122/20
f 6/16/21 7/17/22 13/124/23 14/123/24
f 7/17/25 8/18/26 12/115/27 13/124/28
f 8/18/29 9/19/30 21/114/31 12/115/32
f 9/19/33 10/20/34 20/116/35 21/114/36
f 10/20/37 1/21/38 19/52/39 20/116/40
s 1
f 2/2/41 1/1/42 11/43/43
f 3/3/44 2/2/41 11/43/43
f 4/4/45 3/3/44 11/43/43
f 5/5/46 4/4/45 11/43/43
f 6/6/47 5/5/46 11/43/43
f 7/7/48 6/6/47 11/43/43
f 8/8/49 7/7/48 11/43/43
f 9/9/50 8/8/49 11/43/43
f 10/10/51 9/9/50 11/43/43
f 1/1/42 10/10/51 11/43/43
s 2
f 52/129/52 53/78/53 54/44/54
f 53/78/53 55/79/55 54/44/54
f 55/79/55 56/80/56 54/44/54
f 56/80/56 57/130/57 54/44/54
f 57/130/57 58/128/58 54/44/54
f 58/128/58 59/83/59 54/44/54
f 59/83/59 60/84/60 54/44/54
f 60/84/60 61/85/61 54/44/54
f 61/85/61 62/127/62 54/44/54
f 62/127/62 52/129/52 54/44/54
s off
f 33/56/63 32/104/64 29/29/65 28/28/66
f 34/58/67 33/56/68 28/28/69 27/27/70
f 35/59/71 34/58/72 27/27/73 26/26/74
f 36/60/75 35/59/76 26/26/77 25/25/78
f 37/61/79 36/60/80 25/25/81 24/24/82
f 38/62/83 37/61/84 24/24/85 23/23/86
f 39/63/87 38/62/88 23/23/89 22/22/90
f 40/64/91 39/65/92 22/32/93 31/31/94
f 41/66/95 40/64/96 31/31/97 30/30/98
f 32/104/99 41/66/100 30/30/101 29/29/102
f 13/46/103 12/45/104 32/57/105 33/113/106
f 14/47/107 13/46/108 33/113/109 34/112/110
f 15/48/111 14/47/112 34/112/113 35/111/114
f 16/49/115 15/48/116 35/111/117 36/110/118
f 17/50/119 16/49/120 36/110/121 37/109/122
f 18/51/123 17/50/124 37/109/125 38/108/126
f 19/53/127 18/51/128 38/108/129 39/106/130
f 20/54/131 19/118/132 39/107/133 40/105/134
f 21/55/135 20/54/136 40/105/137 41/103/138
f 12/45/139 21/55/140 41/103/141 32/57/142
f 22/41/143 23/40/144 43/68/145 42/132/146
f 23/40/147 24/39/148 44/69/149 43/68/150
f 24/39/151 25/38/152 45/70/153 44/69/154
f 25/38/155 26/37/156 46/131/157 45/70/158
f 26/37/159 27/36/160 47/126/161 46/131/162
f 27/36/163 28/35/164 48/73/165 47/126/166
f 28/35/167 29/34/168 49/74/169 48/73/170
f 29/34/171 30/33/172 50/75/173 49/74/174
f 30/33/175 31/42/176 51/125/177 50/75/178
f 31/42/179 22/41/180 42/132/181 51/125/182
f 42/132/183 43/68/184 53/78/185 52/129/186
f 43/68/187 44/69/188 55/79/189 53/78/190
f 44/69/191 45/70/192 56/80/193 55/79/194
f 45/70/195 46/131/196 57/130/197 56/80/198
f 63/87/199 64/88/200 65/89/201 66/90/202
f 47/126/203 48/73/204 59/83/205 58/128/206
f 48/73/207 49/74/208 60/84/209 59/83/210
f 49/74/211 50/75/212 61/85/213 60/84/214
f 50/75/215 51/125/216 62/127/217 61/85/218
f 67/91/219 68/92/220 69/93/221 70/94/222
s 3
f 46/71/223 47/72/224 76/100/225 77/101/226
s 4
f 47/72/227 58/82/228 75/99/229 76/100/230
s off
f 58/82/231 57/136/232 78/134/233 75/99/234
s 5
f 57/81/235 46/71/236 77/101/237 78/102/238
s 6
f 51/76/239 42/67/240 71/95/241 72/96/242
s 7
f 42/67/243 52/135/244 74/133/245 71/95/246
s off
f 52/77/247 62/86/248 73/97/249 74/98/250
s 8
f 62/86/251 51/76/252 72/96/253 73/97/254
s 6
f 72/96/242 71/95/241 68/92/255 67/91/256
s 8
f 73/97/254 72/96/253 67/91/257 70/94/258
s 7
f 71/95/246 74/133/245 69/93/259 68/92/260
s 4
f 76/100/230 75/99/229 65/89/261 64/88/262
s 3
f 77/101/226 76/100/225 64/88/263 63/87/264
s 5
f 78/102/238 77/101/237 63/87/265 66/90/266
s off
f 73/97/267 70/94/268 65/89/269 75/99/270
f 66/90/271 65/89/272 70/94/273 69/93/274
f 74/98/275 73/97/276 75/99/277 78/134/278
f 69/93/279 74/133/280 78/102/281 66/90/282
